<svg width="19" height="21" viewBox="0 0 19 21" fill="none" xmlns="http://www.w3.org/2000/svg">
    <path d="M5.11072 10.973H8.02738" stroke="#3594BC" stroke-width="1.25" stroke-linecap="round"
        stroke-linejoin="round" />
    <path
        d="M16.7776 9.02814V5.94426C16.7776 5.42898 16.5725 4.93412 16.2079 4.56953L13.4584 1.82009C13.0939 1.45551 12.599 1.25037 12.0837 1.25037H3.16649C2.09218 1.25037 1.22205 2.12051 1.22205 3.19481V16.8059C1.22205 17.8802 2.09218 18.7504 3.16649 18.7504H7.05538"
        stroke="#3594BC" stroke-width="1.25" stroke-linecap="round" stroke-linejoin="round" />
    <path fill-rule="evenodd" clip-rule="evenodd"
        d="M15.3277 12.3604L10.6954 16.9927C10.3979 17.2902 10.2049 17.6762 10.1454 18.0927L9.97596 19.2787C9.95865 19.3999 9.9994 19.5221 10.086 19.6087C10.1725 19.6952 10.2948 19.736 10.4159 19.7187L11.602 19.5493C12.0185 19.4898 12.4045 19.2968 12.702 18.9993L17.3343 14.367C17.8883 13.8129 17.8883 12.9145 17.3343 12.3604V12.3604C17.0682 12.0943 16.7073 11.9448 16.331 11.9448C15.9546 11.9448 15.5937 12.0943 15.3277 12.3604Z"
        stroke="#3594BC" stroke-width="1.25" stroke-linecap="round" stroke-linejoin="round" />
    <path d="M5.11072 7.08337H12.4024" stroke="#3594BC" stroke-width="1.25" stroke-linecap="round"
        stroke-linejoin="round" />
</svg>
