<svg width="92" height="92" viewBox="0 0 92 92" fill="none" xmlns="http://www.w3.org/2000/svg">
    <g clip-path="url(#clip0_1_2842)">
        <mask id="mask0_1_2842" style="mask-type:luminance" maskUnits="userSpaceOnUse" x="0" y="0" width="92" height="92">
            <path d="M92 0H0V92H92V0Z" fill="white"/>
        </mask>
        <g mask="url(#mask0_1_2842)">
            <path d="M46.0501 0C58.2532 0.00818821 69.9531 4.86245 78.5763 13.4949C87.1994 22.1274 92.0391 33.8309 92.0308 46.0308C92.0228 58.2309 87.1672 69.9278 78.5326 78.5487C69.8979 87.1695 58.1914 92.0083 45.9885 92C20.381 92.0462 -0.0308453 71.3849 3.49918e-05 45.4443C0.00775505 20.1983 20.5045 0 46.0501 0ZM45.9112 3.44229C22.5272 3.44229 3.4509 22.3671 3.4509 45.5911C3.39133 56.9151 7.8292 67.8003 15.7901 75.8561C23.7509 83.912 34.5842 88.4801 45.9112 88.5578C69.0715 88.8046 88.7036 69.1621 88.6496 45.7994C88.5955 22.4366 69.3572 3.44229 45.9112 3.44229Z" fill="#404040"/>
            <path d="M56.8586 47.6749H36.0144V70.5668H29.9617V67.0395C29.9617 56.0413 29.9617 45.043 29.9617 34.0446C29.9617 27.4533 29.0431 26.4268 23.5388 26.1335C23.3226 26.1335 23.1142 25.8635 22.1028 25.1687L35.8215 23.3087V44.5876H56.6654V23.5324H62.5406V70.5513H56.8662L56.8586 47.6749Z" fill="#404040"/>
        </g>
    </g>
    <defs>
        <clipPath id="clip0_1_2842">
            <rect width="92" height="92" fill="white"/>
        </clipPath>
    </defs>
</svg>
