<svg width="48" height="48" viewBox="0 0 48 48" fill="none" xmlns="http://www.w3.org/2000/svg">
    <rect x="0.65" y="0.65" width="46.7" height="46.7" rx="3.35" fill="white" />
    <rect x="0.65" y="0.65" width="46.7" height="46.7" rx="3.35"
        stroke="url(#paint0_linear_65_5995)" stroke-width="1.3" />
    <path
        d="M14.2798 17C14.2798 15.4974 15.4971 14.28 16.9998 14.28H19.5878C19.9854 14.28 20.3078 14.6024 20.3078 15C20.3078 15.3977 19.9854 15.72 19.5878 15.72H16.9998C16.2924 15.72 15.7198 16.2927 15.7198 17V19.588C15.7198 19.9857 15.3974 20.308 14.9998 20.308C14.6021 20.308 14.2798 19.9857 14.2798 19.588V17Z"
        fill="url(#paint1_linear_65_5995)" />
    <path
        d="M20.22 21.08C20.22 20.6824 19.8976 20.36 19.5 20.36C19.1023 20.36 18.78 20.6824 18.78 21.08V22.58C18.78 22.9777 19.1023 23.3 19.5 23.3C19.8976 23.3 20.22 22.9777 20.22 22.58V21.08Z"
        fill="url(#paint2_linear_65_5995)" />
    <path
        d="M29.22 21.08C29.22 20.6824 28.8976 20.36 28.5 20.36C28.1023 20.36 27.78 20.6824 27.78 21.08V22.58C27.78 22.9777 28.1023 23.3 28.5 23.3C28.8976 23.3 29.22 22.9777 29.22 22.58V21.08Z"
        fill="url(#paint3_linear_65_5995)" />
    <path
        d="M24.4996 20.377C24.8972 20.377 25.2196 20.6994 25.2196 21.097V24.597C25.2196 25.5467 24.4492 26.317 23.4996 26.317H22.9996C22.6019 26.317 22.2796 25.9947 22.2796 25.597C22.2796 25.1994 22.6019 24.877 22.9996 24.877H23.4996C23.6539 24.877 23.7796 24.7514 23.7796 24.597V21.097C23.7796 20.6994 24.1019 20.377 24.4996 20.377Z"
        fill="url(#paint4_linear_65_5995)" />
    <path
        d="M21.2681 27.6479C20.9869 27.3667 20.531 27.3667 20.2498 27.6479C19.9687 27.9291 19.9687 28.385 20.2498 28.6662C22.321 30.7373 25.6799 30.7373 27.7511 28.6662C28.0323 28.385 28.0323 27.9291 27.7511 27.6479C27.4699 27.3667 27.014 27.3667 26.7328 27.6479C25.224 29.1567 22.7769 29.1567 21.2681 27.6479Z"
        fill="url(#paint5_linear_65_5995)" />
    <path
        d="M33.7199 28.412C33.7199 28.0144 33.3975 27.692 32.9999 27.692C32.6023 27.692 32.2799 28.0144 32.2799 28.412V31C32.2799 31.7074 31.7073 32.28 30.9999 32.28H28.4119C28.0142 32.28 27.6919 32.6024 27.6919 33C27.6919 33.3977 28.0142 33.72 28.4119 33.72H30.9999C32.5025 33.72 33.7199 32.5027 33.7199 31V28.412Z"
        fill="url(#paint6_linear_65_5995)" />
    <path
        d="M14.9998 27.692C15.3974 27.692 15.7198 28.0144 15.7198 28.412V31C15.7198 31.7074 16.2924 32.28 16.9998 32.28H19.5878C19.9854 32.28 20.3078 32.6024 20.3078 33C20.3078 33.3977 19.9854 33.72 19.5878 33.72H16.9998C15.4971 33.72 14.2798 32.5027 14.2798 31V28.412C14.2798 28.0144 14.6021 27.692 14.9998 27.692Z"
        fill="url(#paint7_linear_65_5995)" />
    <path
        d="M28.4119 14.28C28.0142 14.28 27.6919 14.6024 27.6919 15C27.6919 15.3977 28.0142 15.72 28.4119 15.72H30.9999C31.7073 15.72 32.2799 16.2927 32.2799 17V19.588C32.2799 19.9857 32.6023 20.308 32.9999 20.308C33.3975 20.308 33.7199 19.9857 33.7199 19.588V17C33.7199 15.4974 32.5025 14.28 30.9999 14.28H28.4119Z"
        fill="url(#paint8_linear_65_5995)" />
    <defs>
        <linearGradient id="paint0_linear_65_5995" x1="-18.8471" y1="-15.3333" x2="48.6792"
            y2="-14.6085" gradientUnits="userSpaceOnUse">
            <stop stop-color="#4FC71A" />
            <stop offset="1" stop-color="#07A5CB" />
        </linearGradient>
        <linearGradient id="paint1_linear_65_5995" x1="6.64668" y1="8.07003" x2="33.995"
            y2="8.36358" gradientUnits="userSpaceOnUse">
            <stop stop-color="#4FC71A" />
            <stop offset="1" stop-color="#07A5CB" />
        </linearGradient>
        <linearGradient id="paint2_linear_65_5995" x1="6.64668" y1="8.07003" x2="33.995"
            y2="8.36358" gradientUnits="userSpaceOnUse">
            <stop stop-color="#4FC71A" />
            <stop offset="1" stop-color="#07A5CB" />
        </linearGradient>
        <linearGradient id="paint3_linear_65_5995" x1="6.64668" y1="8.07003" x2="33.995"
            y2="8.36358" gradientUnits="userSpaceOnUse">
            <stop stop-color="#4FC71A" />
            <stop offset="1" stop-color="#07A5CB" />
        </linearGradient>
        <linearGradient id="paint4_linear_65_5995" x1="6.64668" y1="8.07003" x2="33.995"
            y2="8.36358" gradientUnits="userSpaceOnUse">
            <stop stop-color="#4FC71A" />
            <stop offset="1" stop-color="#07A5CB" />
        </linearGradient>
        <linearGradient id="paint5_linear_65_5995" x1="6.64668" y1="8.07003" x2="33.995"
            y2="8.36358" gradientUnits="userSpaceOnUse">
            <stop stop-color="#4FC71A" />
            <stop offset="1" stop-color="#07A5CB" />
        </linearGradient>
        <linearGradient id="paint6_linear_65_5995" x1="6.64668" y1="8.07003" x2="33.995"
            y2="8.36358" gradientUnits="userSpaceOnUse">
            <stop stop-color="#4FC71A" />
            <stop offset="1" stop-color="#07A5CB" />
        </linearGradient>
        <linearGradient id="paint7_linear_65_5995" x1="6.64668" y1="8.07003" x2="33.995"
            y2="8.36358" gradientUnits="userSpaceOnUse">
            <stop stop-color="#4FC71A" />
            <stop offset="1" stop-color="#07A5CB" />
        </linearGradient>
        <linearGradient id="paint8_linear_65_5995" x1="6.64668" y1="8.07003" x2="33.995"
            y2="8.36358" gradientUnits="userSpaceOnUse">
            <stop stop-color="#4FC71A" />
            <stop offset="1" stop-color="#07A5CB" />
        </linearGradient>
    </defs>
</svg>
